<svg width="400" height="240" xmlns="http://www.w3.org/2000/svg">
  <defs>
    <linearGradient id="sky4" x1="0%" y1="0%" x2="0%" y2="100%">
      <stop offset="0%" style="stop-color:#667eea;stop-opacity:1" />
      <stop offset="100%" style="stop-color:#764ba2;stop-opacity:1" />
    </linearGradient>
  </defs>
  <rect width="400" height="240" fill="url(#sky4)"/>
  <rect x="100" y="70" width="200" height="150" fill="#E8E8E8"/>
  <rect x="120" y="90" width="18" height="18" fill="#333"/>
  <rect x="160" y="90" width="18" height="18" fill="#333"/>
  <rect x="200" y="90" width="18" height="18" fill="#333"/>
  <rect x="240" y="90" width="18" height="18" fill="#333"/>
  <rect x="120" y="130" width="18" height="18" fill="#333"/>
  <rect x="160" y="130" width="18" height="18" fill="#333"/>
  <rect x="200" y="130" width="18" height="18" fill="#333"/>
  <rect x="240" y="130" width="18" height="18" fill="#333"/>
  <rect x="120" y="170" width="18" height="18" fill="#333"/>
  <rect x="160" y="170" width="18" height="18" fill="#333"/>
  <rect x="200" y="170" width="18" height="18" fill="#333"/>
  <rect x="240" y="170" width="18" height="18" fill="#333"/>
  <polygon points="100,70 200,30 300,70" fill="#333"/>
</svg>