<svg width="400" height="240" xmlns="http://www.w3.org/2000/svg">
  <defs>
    <linearGradient id="sky3" x1="0%" y1="0%" x2="0%" y2="100%">
      <stop offset="0%" style="stop-color:#6DD5ED;stop-opacity:1" />
      <stop offset="100%" style="stop-color:#2193B0;stop-opacity:1" />
    </linearGradient>
  </defs>
  <rect width="400" height="240" fill="url(#sky3)"/>
  <rect x="70" y="80" width="120" height="140" fill="#2C3E50"/>
  <rect x="210" y="50" width="120" height="170" fill="#34495E"/>
  <rect x="85" y="95" width="15" height="20" fill="#FFD700"/>
  <rect x="105" y="95" width="15" height="20" fill="#FFD700"/>
  <rect x="125" y="95" width="15" height="20" fill="#FFD700"/>
  <rect x="145" y="95" width="15" height="20" fill="#FFD700"/>
  <rect x="85" y="125" width="15" height="20" fill="#FFD700"/>
  <rect x="105" y="125" width="15" height="20" fill="#FFD700"/>
  <rect x="125" y="125" width="15" height="20" fill="#FFD700"/>
  <rect x="145" y="125" width="15" height="20" fill="#FFD700"/>
  <rect x="85" y="155" width="15" height="20" fill="#FFD700"/>
  <rect x="105" y="155" width="15" height="20" fill="#FFD700"/>
  <rect x="125" y="155" width="15" height="20" fill="#FFD700"/>
  <rect x="145" y="155" width="15" height="20" fill="#FFD700"/>
  <rect x="225" y="70" width="15" height="20" fill="#FFD700"/>
  <rect x="250" y="70" width="15" height="20" fill="#FFD700"/>
  <rect x="275" y="70" width="15" height="20" fill="#FFD700"/>
  <rect x="225" y="105" width="15" height="20" fill="#FFD700"/>
  <rect x="250" y="105" width="15" height="20" fill="#FFD700"/>
  <rect x="275" y="105" width="15" height="20" fill="#FFD700"/>
  <rect x="225" y="140" width="15" height="20" fill="#FFD700"/>
  <rect x="250" y="140" width="15" height="20" fill="#FFD700"/>
  <rect x="275" y="140" width="15" height="20" fill="#FFD700"/>
  <rect x="225" y="175" width="15" height="20" fill="#FFD700"/>
  <rect x="250" y="175" width="15" height="20" fill="#FFD700"/>
  <rect x="275" y="175" width="15" height="20" fill="#FFD700"/>
</svg>