<svg width="400" height="240" xmlns="http://www.w3.org/2000/svg">
  <defs>
    <linearGradient id="sky1" x1="0%" y1="0%" x2="0%" y2="100%">
      <stop offset="0%" style="stop-color:#87CEEB;stop-opacity:1" />
      <stop offset="100%" style="stop-color:#E0F6FF;stop-opacity:1" />
    </linearGradient>
  </defs>
  <rect width="400" height="240" fill="url(#sky1)"/>
  <rect x="80" y="60" width="240" height="160" fill="#4A90E2"/>
  <line x1="120" y1="80" x2="120" y2="210" stroke="#FFD700" stroke-width="2"/>
  <line x1="160" y1="80" x2="160" y2="210" stroke="#FFD700" stroke-width="2"/>
  <line x1="200" y1="80" x2="200" y2="210" stroke="#FFD700" stroke-width="2"/>
  <line x1="240" y1="80" x2="240" y2="210" stroke="#FFD700" stroke-width="2"/>
  <line x1="280" y1="80" x2="280" y2="210" stroke="#FFD700" stroke-width="2"/>
  <rect x="100" y="100" width="20" height="20" fill="#FFD700"/>
  <rect x="130" y="100" width="20" height="20" fill="#FFD700"/>
  <rect x="160" y="100" width="20" height="20" fill="#FFD700"/>
  <rect x="190" y="100" width="20" height="20" fill="#FFD700"/>
  <rect x="220" y="100" width="20" height="20" fill="#FFD700"/>
  <rect x="250" y="100" width="20" height="20" fill="#FFD700"/>
  <rect x="100" y="135" width="20" height="20" fill="#FFD700"/>
  <rect x="130" y="135" width="20" height="20" fill="#FFD700"/>
  <rect x="160" y="135" width="20" height="20" fill="#FFD700"/>
  <rect x="190" y="135" width="20" height="20" fill="#FFD700"/>
  <rect x="220" y="135" width="20" height="20" fill="#FFD700"/>
  <rect x="250" y="135" width="20" height="20" fill="#FFD700"/>
  <rect x="100" y="170" width="20" height="20" fill="#FFD700"/>
  <rect x="130" y="170" width="20" height="20" fill="#FFD700"/>
  <rect x="160" y="170" width="20" height="20" fill="#FFD700"/>
  <rect x="190" y="170" width="20" height="20" fill="#FFD700"/>
  <rect x="220" y="170" width="20" height="20" fill="#FFD700"/>
  <rect x="250" y="170" width="20" height="20" fill="#FFD700"/>
</svg>