<?xml version="1.0" encoding="UTF-8"?>
<svg xmlns="http://www.w3.org/2000/svg" xmlns:xlink="http://www.w3.org/1999/xlink" version="1.1" viewBox="0 0 283.46 122.33">
  <defs>
    <style>
      .st0 { fill: url(#g1); }
      .st1 { fill: url(#g2); }
      .st2 { fill: url(#g3); }
      .st3 { fill: url(#g4); }
      .st4 { fill: #555; }
      .st5 { fill: #888; }
      .st6 { fill: #fff; }
      .st7 { fill: #e0e0e0; opacity: .7; }
    </style>
    <linearGradient id="g3" x1="26.28" y1="87.65" x2="83.86" y2="30.07" gradientUnits="userSpaceOnUse">
      <stop offset="0" stop-color="#999"/>
      <stop offset=".75" stop-color="#666"/>
    </linearGradient>
    <linearGradient id="g4" x1="-.55" y1="109.03" x2="28.84" y2="79.65" gradientUnits="userSpaceOnUse">
      <stop offset="0" stop-color="#999"/>
      <stop offset=".65" stop-color="#666"/>
    </linearGradient>
    <linearGradient id="g1" x1="86.31" y1="54.77" x2="141.25" y2="109.71" gradientUnits="userSpaceOnUse">
      <stop offset=".35" stop-color="#666"/>
      <stop offset="1" stop-color="#999"/>
    </linearGradient>
    <linearGradient id="g2" x1="73.86" y1="10.23" x2="116.84" y2="53.22" gradientUnits="userSpaceOnUse">
      <stop offset=".25" stop-color="#666"/>
      <stop offset="1" stop-color="#999"/>
    </linearGradient>
  </defs>
  <g>
    <path class="st4" d="M178.45,58.68c-1.52-.69-3.41-1.04-5.65-1.04h-9.18v26.44h6.38v-9.18h2.8c2.24,0,4.12-.35,5.65-1.04,1.52-.69,2.68-1.69,3.46-2.98.78-1.3,1.17-2.83,1.17-4.59s-.39-3.36-1.17-4.65c-.78-1.28-1.93-2.27-3.46-2.97ZM175.82,68.78c-.73.58-1.74.87-3.02.87h-2.8v-6.76h2.8c1.28,0,2.29.29,3.02.87s1.1,1.42,1.1,2.53-.37,1.91-1.1,2.49Z"/>
    <path class="st4" d="M203.36,74.94c0,1.34-.35,2.42-1.06,3.25-.71.83-1.78,1.25-3.21,1.25s-2.47-.42-3.17-1.25-1.06-1.91-1.06-3.25v-17.3h-6.38v17.76c0,1.66.27,3.11.81,4.34.54,1.23,1.3,2.25,2.27,3.04.97.79,2.1,1.39,3.38,1.79,1.28.4,2.67.6,4.16.6s2.88-.2,4.17-.6c1.3-.4,2.43-1,3.4-1.79.97-.79,1.73-1.81,2.27-3.04.54-1.23.81-2.68.81-4.34v-17.76h-6.38v17.3Z"/>
    <polygon class="st4" points="223.72 57.64 217.34 57.64 217.34 84.08 234.34 84.08 234.34 78.61 223.72 78.61 223.72 57.64"/>
    <path class="st4" d="M257.45,71.35c-.62-.65-1.33-1.21-2.13-1.68-.81-.47-1.68-.87-2.61-1.23-1.23-.43-2.29-.83-3.15-1.21-.87-.38-1.54-.79-2-1.25-.47-.45-.7-.98-.7-1.59s.24-1.06.72-1.45c.48-.39,1.17-.59,2.08-.59.68,0,1.32.13,1.91.4.59.26,1.13.63,1.62,1.09.49.47.93,1.01,1.3,1.64l4.87-2.72c-.45-.91-1.11-1.8-1.96-2.68-.86-.88-1.93-1.61-3.23-2.19-1.3-.58-2.83-.87-4.59-.87s-3.27.3-4.67.89c-1.4.59-2.51,1.45-3.32,2.59s-1.23,2.48-1.23,4.04c0,1.31.24,2.42.72,3.34.48.92,1.08,1.7,1.81,2.34.73.64,1.5,1.16,2.32,1.57.82.4,1.54.72,2.17.94,1.29.48,2.32.91,3.1,1.28.78.38,1.35.77,1.7,1.19.35.42.53.96.53,1.64,0,.81-.3,1.44-.91,1.91-.6.47-1.37.7-2.3.7-.88,0-1.72-.19-2.51-.57-.79-.38-1.52-.92-2.19-1.62-.67-.7-1.27-1.54-1.79-2.49l-4.46,3.21c.6,1.26,1.45,2.42,2.53,3.48s2.36,1.9,3.83,2.51c1.47.62,3.07.93,4.78.93,1.23,0,2.44-.18,3.61-.55,1.17-.36,2.22-.9,3.14-1.61.92-.7,1.65-1.58,2.19-2.62.54-1.05.81-2.23.81-3.57,0-1.11-.18-2.09-.53-2.95-.35-.86-.84-1.61-1.46-2.27Z"/>
    <polygon class="st4" points="283.46 62.89 283.46 57.64 272.02 57.64 270.13 57.64 265.9 57.64 265.9 84.08 270.13 84.08 272.02 84.08 283.46 84.08 283.46 78.83 272.02 78.83 272.02 72.75 282.71 72.75 282.71 67.61 272.02 67.61 272.02 62.89 283.46 62.89"/>
  </g>
  <g>
    <path class="st4" d="M176.63,94.45c-2.12,0-4.07.33-5.86.98s-3.32,1.6-4.61,2.83c-1.28,1.23-2.28,2.69-2.98,4.38-.71,1.69-1.06,3.56-1.06,5.63s.35,3.94,1.06,5.63c.7,1.69,1.7,3.15,2.98,4.38,1.28,1.23,2.82,2.18,4.61,2.83s3.74.98,5.86.98c1.94,0,3.54-.24,4.8-.72,1.26-.48,2.42-1.13,3.47-1.96v-6.88c-.58.6-1.25,1.17-2,1.7s-1.61.96-2.57,1.28c-.96.33-2.07.49-3.32.49-1.44,0-2.75-.3-3.95-.91-1.2-.6-2.16-1.49-2.89-2.66-.73-1.17-1.09-2.56-1.09-4.17s.36-3.04,1.09-4.19c.73-1.16,1.69-2.04,2.89-2.64s2.51-.91,3.95-.91c1.26,0,2.37.16,3.32.47.96.31,1.81.74,2.57,1.28.76.54,1.42,1.11,2,1.72v-6.88c-1.06-.83-2.22-1.49-3.47-1.96-1.26-.48-2.86-.72-4.8-.72Z"/>
    <path class="st4" d="M219.53,98.3c-1.29-1.23-2.79-2.18-4.52-2.85-1.73-.67-3.61-1-5.65-1s-3.89.33-5.63,1c-1.74.67-3.25,1.62-4.53,2.85-1.28,1.23-2.29,2.7-3,4.38-.72,1.69-1.08,3.55-1.08,5.59s.35,3.92,1.04,5.63c.69,1.71,1.68,3.2,2.95,4.46s2.78,2.24,4.51,2.93c1.74.69,3.65,1.04,5.74,1.04s3.97-.35,5.7-1.04c1.74-.69,3.24-1.67,4.51-2.93s2.25-2.74,2.95-4.46c.69-1.71,1.04-3.59,1.04-5.63s-.35-3.9-1.06-5.59c-.71-1.69-1.7-3.15-2.98-4.38ZM215.89,112.41c-.62,1.2-1.49,2.13-2.61,2.81-1.12.68-2.42,1.02-3.91,1.02s-2.83-.34-3.95-1.02-1.99-1.62-2.61-2.81c-.62-1.2-.93-2.58-.93-4.14s.31-2.94.93-4.14c.62-1.2,1.49-2.13,2.61-2.81s2.44-1.02,3.95-1.02,2.86.34,3.97,1.02,1.96,1.62,2.57,2.81c.61,1.2.91,2.58.91,4.14s-.31,2.94-.93,4.14Z"/>
    <path class="st4" d="M249.84,111.22c1.51-.73,2.66-1.74,3.44-3.04.78-1.3,1.17-2.79,1.17-4.48s-.39-3.22-1.17-4.51c-.78-1.3-1.93-2.31-3.44-3.04-1.51-.73-3.4-1.09-5.67-1.09h-9.63v26.44h6.38v-9.18h1.93l5.7,9.18h7.48l-6.9-9.99c.24-.09.49-.17.71-.28ZM240.93,100.45h2.8c.86,0,1.59.14,2.21.42.62.28,1.09.67,1.42,1.19.33.52.49,1.14.49,1.87s-.16,1.35-.49,1.87c-.33.52-.8.91-1.42,1.17-.62.26-1.35.4-2.21.4h-2.8v-6.91Z"/>
    <polygon class="st4" points="283.46 100.3 283.46 95.05 272.02 95.05 270.13 95.05 265.9 95.05 265.9 121.5 270.13 121.5 272.02 121.5 283.46 121.5 283.46 116.25 272.02 116.25 272.02 110.16 282.71 110.16 282.71 105.03 272.02 105.03 272.02 100.3 283.46 100.3"/>
  </g>
  <g>
    <path class="st6" d="M130.92,47.55v-17.15L67.02,0,23.35,15.19v49.62S0,69.85,0,69.85v51.7h141.37V51.79l-10.45-4.24Z"/>
    <polygon class="st2" points="63.13 77.75 63.13 77.75 63.13 77.74 63.13 9.34 29.35 19.8 29.35 66.7 54.22 78.35 54.2 115.57 54.2 115.57 63.13 115.57 63.13 77.75"/>
    <polygon class="st3" points="5.99 74.69 5.99 115.57 20.72 115.57 20.72 71.53 5.99 74.69"/>
    <polygon class="st0" points="98.93 42.16 98.93 115.57 112.1 115.57 112.1 115.57 135.39 115.57 135.39 55.67 98.93 42.16"/>
    <polygon class="st1" points="73.73 10.36 73.73 37.16 94.14 32.81 124.94 45.12 124.94 34.26 73.73 10.36"/>
    <path class="st5" d="M111.68,102.04c0-18.56-15.05-33.61-33.61-33.61s-33.61,15.05-33.61,33.61c0,7.28,2.32,14,6.25,19.51h54.73c3.93-5.5,6.25-12.23,6.25-19.51Z"/>
    <path class="st7" d="M130.92,47.55v-17.15L67.02,0,23.35,15.19v49.62S0,69.84,0,69.84v51.7h141.37V51.79l-10.45-4.24ZM20.72,115.57H5.99s0-40.88,0-40.88l14.73-3.16v44.04ZM63.13,115.57h-8.94s.03-37.22.03-37.22l-24.88-11.65V19.8s33.79-10.46,33.79-10.46v106.23ZM73.73,37.16V10.35s51.2,23.9,51.2,23.9v10.86l-30.79-12.31-20.41,4.35ZM135.39,115.57h-36.46V42.16s36.46,13.51,36.46,13.51v59.9Z"/>
  </g>
</svg>
