<?xml version="1.0" encoding="UTF-8"?>
<svg xmlns="http://www.w3.org/2000/svg" xmlns:xlink="http://www.w3.org/1999/xlink" version="1.1" viewBox="0 0 142 122">
  <defs>
    <style>
      .st0 { fill: url(#g1); }
      .st1 { fill: url(#g2); }
      .st2 { fill: url(#g3); }
      .st3 { fill: url(#g4); }
      .st5 { fill: #888; }
      .st6 { fill: #fff; }
      .st7 { fill: #e0e0e0; opacity: .7; }
    </style>
    <linearGradient id="g3" x1="26.28" y1="87.65" x2="83.86" y2="30.07" gradientUnits="userSpaceOnUse">
      <stop offset="0" stop-color="#999"/>
      <stop offset=".75" stop-color="#666"/>
    </linearGradient>
    <linearGradient id="g4" x1="-.55" y1="109.03" x2="28.84" y2="79.65" gradientUnits="userSpaceOnUse">
      <stop offset="0" stop-color="#999"/>
      <stop offset=".65" stop-color="#666"/>
    </linearGradient>
    <linearGradient id="g1" x1="86.31" y1="54.77" x2="141.25" y2="109.71" gradientUnits="userSpaceOnUse">
      <stop offset=".35" stop-color="#666"/>
      <stop offset="1" stop-color="#999"/>
    </linearGradient>
    <linearGradient id="g2" x1="73.86" y1="10.23" x2="116.84" y2="53.22" gradientUnits="userSpaceOnUse">
      <stop offset=".25" stop-color="#666"/>
      <stop offset="1" stop-color="#999"/>
    </linearGradient>
  </defs>
  <g>
    <path class="st6" d="M130.92,47.55v-17.15L67.02,0,23.35,15.19v49.62S0,69.85,0,69.85v51.7h141.37V51.79l-10.45-4.24Z"/>
    <polygon class="st2" points="63.13 77.75 63.13 77.75 63.13 77.74 63.13 9.34 29.35 19.8 29.35 66.7 54.22 78.35 54.2 115.57 54.2 115.57 63.13 115.57 63.13 77.75"/>
    <polygon class="st3" points="5.99 74.69 5.99 115.57 20.72 115.57 20.72 71.53 5.99 74.69"/>
    <polygon class="st0" points="98.93 42.16 98.93 115.57 112.1 115.57 112.1 115.57 135.39 115.57 135.39 55.67 98.93 42.16"/>
    <polygon class="st1" points="73.73 10.36 73.73 37.16 94.14 32.81 124.94 45.12 124.94 34.26 73.73 10.36"/>
    <path class="st5" d="M111.68,102.04c0-18.56-15.05-33.61-33.61-33.61s-33.61,15.05-33.61,33.61c0,7.28,2.32,14,6.25,19.51h54.73c3.93-5.5,6.25-12.23,6.25-19.51Z"/>
    <path class="st7" d="M130.92,47.55v-17.15L67.02,0,23.35,15.19v49.62S0,69.84,0,69.84v51.7h141.37V51.79l-10.45-4.24ZM20.72,115.57H5.99s0-40.88,0-40.88l14.73-3.16v44.04ZM63.13,115.57h-8.94s.03-37.22.03-37.22l-24.88-11.65V19.8s33.79-10.46,33.79-10.46v106.23ZM73.73,37.16V10.35s51.2,23.9,51.2,23.9v10.86l-30.79-12.31-20.41,4.35ZM135.39,115.57h-36.46V42.16s36.46,13.51,36.46,13.51v59.9Z"/>
  </g>
</svg>
